<svg width="14" height="12" viewBox="0 0 14 12" fill="none" xmlns="http://www.w3.org/2000/svg">
<path d="M6.99995 11.88L6.75995 11.68C1.59995 7.48 0.199951 6 0.199951 3.6C0.199951 1.6 1.79995 0 3.79995 0C5.43995 0 6.35995 0.92 6.99995 1.64C7.63995 0.92 8.55995 0 10.2 0C12.2 0 13.8 1.6 13.8 3.6C13.8 6 12.4 7.48 7.23995 11.68L6.99995 11.88ZM3.79995 0.8C2.23995 0.8 0.999951 2.04 0.999951 3.6C0.999951 5.64 2.27995 7 6.99995 10.84C11.72 7 13 5.64 13 3.6C13 2.04 11.76 0.8 10.2 0.8C8.79995 0.8 8.03995 1.64 7.43995 2.32L6.99995 2.84L6.55995 2.32C5.95995 1.64 5.19995 0.8 3.79995 0.8Z" fill="black"/>
</svg>
